<?xml version="1.0" encoding="utf-8"?>
<svg class="logo" version="1.1" xmlns="http://www.w3.org/2000/svg" xmlns:xlink="http://www.w3.org/1999/xlink" x="0px" y="0px"
	 viewBox="489.1 191.5 776.9 457.6" xml:space="preserve">
<path class="stTop"  d="M966.1,461.6l-14.5,14.5V191.5h14.5v197.3l114.1-114.1l7,13l-71.5,72l66.8,74.2c4.8,5.5,9,9.3,12.5,11.5
	c3.5,2.2,7.5,3.3,11.9,3.3h2v14.5c0,0-2,0-2,0c-6.8,0-12.7-1.5-17.8-4.5c-5.1-3-10.7-8-17-15l-66.8-73.6l-39.3,39.3V461.6z"/>
<path class="stTop"  d="M1066,219.9l16,0l76.2,149.9l76.8-151.2l16,0l-87.9,173.1h-9.6L1066,219.9z"/>
<path class="stTop"  d="M1030.2,455.3c25.5,0,47.4,9.5,65.5,28.4c18.2,18.9,27.3,41.7,27.3,68.2c0,17.4-4.1,33.5-12.4,48.3
	c-8.3,14.8-19.5,26.4-33.8,35c-14.3,8.6-29.8,12.9-46.6,12.9s-32.3-4.3-46.6-12.9c-14.3-8.6-25.5-20.3-33.8-35
	c-8.3-14.8-12.4-30.9-12.4-48.3c0-26.6,9.1-49.3,27.3-68.2C982.9,464.8,1004.7,455.3,1030.2,455.3z M951.9,551.9
	c0,22.6,7.7,41.8,23.1,57.8c15.4,16,33.8,23.9,55.3,23.9s39.9-8,55.3-23.9c15.4-16,23.1-35.2,23.1-57.8c0-22.6-7.7-41.9-23.1-58
	c-15.4-16.1-33.8-24.1-55.3-24.1s-39.9,8-55.3,24.1C959.6,510,951.9,529.4,951.9,551.9z"/>
<path class="stTop"  d="M1165.8,584.2c0,10.8,3.8,20,11.5,27.6c7.7,7.6,16.9,11.5,27.7,11.5c10,0,19.3-3,27.9-9.1l8.4,11.5
	c-10.4,8.1-22.5,12.1-36.3,12.1c-14.8,0-27.5-5.2-38-15.6c-10.5-10.4-15.7-23-15.7-37.8V463H1123v-14.5h28.3v-42.8h14.5v42.8h71.7
	V463h-71.7V584.2z"/>
<polygon class="stRight" points="889.8,230.7 624.9,383 691.3,420.7 823.7,344.6 824.4,648.1 890.7,609.6"/>
<polygon class="stTop" points="621.9,381.4 754.6,456.8 754.8,532.7 491,380.8 820.3,191.5 886.7,229.2"/>
<polygon class="stLeft" points="820.5,346.1 754.3,384.2 754.7,536.1 489.1,384.8 489.1,465.4 821.3,649.2"/>
</svg>