<?xml version="1.0" encoding="UTF-8"?>
<!DOCTYPE svg PUBLIC "-//W3C//DTD SVG 1.1//EN" "http://www.w3.org/Graphics/SVG/1.1/DTD/svg11.dtd">
<svg x="0px" y="0px" version="1.1" viewBox="600 200 720 720" xmlns="http://www.w3.org/2000/svg" xmlns:xlink="http://www.w3.org/1999/xlink">
<g>
 <path d="m234.15 457.89c1.7344 2.9727 3.9805 5.6172 6.6367 7.8086-0.1875 1.0859-0.29687 2.1836-0.33594 3.2852-0.019531 8.0078 3.8672 15.523 10.41 20.133 6.5469 4.6133 14.93 5.7461 22.461 3.0352 7.5352-2.7109 13.273-8.9219 15.379-16.648 11.273-1.0391 22.438-3.0547 33.363-6.0234 11.668 42.75 31.277 70.309 53.934 70.309 22.199 0 42.055-26.742 53.93-70.438 7.3125 1.9297 14.465 3.5469 21.305 4.6484 7.6367 1.2812 15.367 1.9492 23.113 2.0078 21.492 0 36.613-6.1875 43.5-18.117 11.332-19.629-2.7461-50.41-33.969-81.906 31.715-31.961 45.117-62.57 33.969-81.883-9.1445-15.832-32.793-21.547-66.617-16.109-6.5938 1.0625-13.492 2.6211-20.531 4.4531l0.003906 0.003906c-2.1016-7.5391-4.6875-14.934-7.7461-22.141 3.6758-4.3633 5.7031-9.8828 5.7266-15.59-0.007813-6.5273-2.6016-12.785-7.2188-17.398-4.6133-4.6172-10.871-7.2148-17.398-7.2188-2.1562 0.027343-4.2969 0.34375-6.3711 0.94141-5.9219-5.4766-13.633-8.6133-21.695-8.8359-22.68 0-42.305 27.605-53.969 70.426-7.2969-1.9258-14.438-3.5391-21.266-4.6406-33.82-5.4492-57.473 0.26953-66.617 16.109-11.324 19.629 2.75 50.402 33.961 81.895-31.211 31.492-45.285 62.27-33.957 81.895zm30.918 26.242h0.003907c-4.0156-0.003907-7.8672-1.6016-10.707-4.4414-2.8398-2.8398-4.4375-6.6875-4.4414-10.707 0.023438-1.4492 0.25391-2.8906 0.69141-4.2734l0.019531-0.0625c1.0859-3.5938 3.4688-6.6562 6.6914-8.5898 3.2188-1.9336 7.043-2.5977 10.723-1.8633 3.6836 0.73047 6.9609 2.8086 9.1992 5.8242 2.2344 3.0195 3.2656 6.7578 2.8945 10.496-0.37109 3.7344-2.1211 7.1992-4.9062 9.7188-2.7852 2.5156-6.4102 3.9062-10.164 3.8984zm110.93 46.184c-16.641 0-34-23.641-44.855-63.418v-0.003906c15.375-4.7227 30.395-10.527 44.949-17.367 14.469 6.7773 29.395 12.531 44.668 17.219-10.543 38.613-27.434 63.57-44.762 63.57zm-55.832-154.32c0-10.969 0.41797-21.492 1.1836-31.551 8.332-5.6914 17.234-11.316 26.734-16.801 9.2891-5.3633 18.633-10.273 27.918-14.723 9.2852 4.4492 18.629 9.3594 27.918 14.723 9.582 5.5312 18.559 11.207 26.953 16.949 0.61328 9.7578 0.96484 19.977 0.96484 30.855 0 5.0742-0.125 10.148-0.30859 15.191h-0.003906c-5.7578-1.0039-11.688 0.089844-16.711 3.082-5.0234 2.9883-8.8086 7.6758-10.676 13.219-1.8633 5.5391-1.6836 11.562 0.50391 16.984-0.24219 0.14062-0.48438 0.28516-0.72656 0.42578-9.3164 5.3789-18.652 10.281-27.91 14.727-9.2891-4.4531-18.633-9.3633-27.926-14.727-9.5-5.4844-18.406-11.109-26.734-16.801-0.76172-10.062-1.1797-20.586-1.1797-31.555zm-8.7695 24.512c-10.402-7.5625-20.34-15.746-29.754-24.512 9.4141-8.7617 19.352-16.945 29.754-24.508-0.46094 7.9805-0.69531 16.152-0.70313 24.508 0 8.3516 0.23438 16.52 0.70313 24.512zm11.074-68.203c1.3438-12.75 3.457-25.41 6.3242-37.906 12.309 3.7617 24.383 8.2617 36.152 13.469-7.207 3.6211-14.422 7.4297-21.602 11.574-7.2305 4.1758-14.191 8.4648-20.879 12.863zm64.582-24.441v0.003906c11.988-5.3086 24.289-9.875 36.836-13.68 2.8711 12.637 4.8789 25.453 6.0156 38.359-6.7969-4.4727-13.879-8.8398-21.25-13.105-7.1797-4.1445-14.395-7.9531-21.602-11.574zm22.734 124.02v0.003906c4.4453 4.6211 10.527 7.3125 16.934 7.4961-1.0625 6.3008-2.2773 12.355-3.6367 18.172-12.246-3.7461-24.254-8.2227-35.965-13.398 7.1719-3.6094 14.348-7.4766 21.535-11.605 0.37891-0.21875 0.75391-0.44531 1.1328-0.66406zm17.691-1.8984v0.003906c-5.4102 0-10.41-2.8867-13.117-7.5742-2.7031-4.6836-2.7031-10.457 0-15.145 2.707-4.6836 7.707-7.5703 13.117-7.5703 2.2148 0.007813 4.4023 0.51172 6.4023 1.4688l0.12891 0.070313c4.1602 1.9844 7.1914 5.7578 8.2266 10.25 1.0352 4.4883-0.035156 9.2109-2.9102 12.812-2.875 3.6055-7.2383 5.6992-11.848 5.6875zm17.254-32.664v0.003906c-1.1836-1.1562-2.4805-2.1914-3.8672-3.0898 0.27734-6.2148 0.44141-12.512 0.44141-18.793 0-8.2695-0.19141-16.191-0.53906-23.84 10.305 7.5039 20.148 15.613 29.484 24.297-8.125 7.5859-16.641 14.738-25.52 21.426zm-101.39 35.23c7.1992 4.1562 14.438 7.9766 21.664 11.605-11.781 5.2422-23.863 9.7695-36.188 13.562-2.8828-12.535-5.0039-25.238-6.3516-38.035 6.6797 4.3906 13.641 8.6797 20.875 12.867zm166.3 20.602c-6.9336 12.012-27.676 16.195-56.902 11.492-6.5781-1.0586-13.465-2.6211-20.508-4.4805 1.668-7.1211 3.125-14.621 4.375-22.5l-0.003906-0.003906c6.1641-2.4414 11.078-7.2812 13.621-13.406 2.5391-6.125 2.4922-13.02-0.13672-19.109 9.4023-7.0469 18.418-14.59 27.012-22.598 29.055 29.312 40.867 56.188 32.543 70.605zm-56.902-165.81c29.234-4.707 49.973-0.51953 56.902 11.492 8.7461 15.152-4.5312 42.152-32.613 70.484-11.609-10.805-23.961-20.777-36.969-29.848-1.0742-16.113-3.418-32.113-7.0078-47.855 6.7539-1.7617 13.367-3.2578 19.688-4.2734zm-33.527-42.629c0 4.0156-1.5977 7.8672-4.4375 10.707-2.8398 2.8438-6.6914 4.4375-10.711 4.4375-4.0156 0-7.8672-1.5938-10.711-4.4375-2.8398-2.8398-4.4336-6.6914-4.4336-10.707 0-4.0195 1.5938-7.8711 4.4336-10.711 2.8438-2.8398 6.6953-4.4375 10.711-4.4375 4.0156 0.003906 7.8672 1.6016 10.707 4.4414 2.8398 2.8398 4.4375 6.6914 4.4414 10.707zm-43.215-23.039c4.4688 0.11719 8.7969 1.5781 12.422 4.1914-6.3359 5.1484-9.6836 13.113-8.9336 21.242 0.75 8.1289 5.5039 15.348 12.672 19.246 7.1719 3.9023 15.812 3.9727 23.047 0.1875 2.4688 6.0273 4.5938 12.188 6.3672 18.453-15.59 4.7383-30.82 10.59-45.574 17.512-14.535-6.8164-29.535-12.598-44.887-17.301 10.855-39.848 28.23-63.531 44.887-63.531zm-133.64 77.16c6.9336-12.012 27.676-16.195 56.902-11.492 6.5586 1.0586 13.426 2.6133 20.449 4.4648h0.003907c-3.5859 15.609-6.0625 31.453-7.4102 47.41-13.176 9.1641-25.68 19.254-37.43 30.191-29.035-29.301-40.836-56.16-32.512-70.574zm32.516 83.738c11.75 10.938 24.254 21.027 37.43 30.195 1.3516 16.004 3.8398 31.895 7.4414 47.547-9.9492 2.7031-20.102 4.582-30.359 5.6289-0.80469-6.7422-4.375-12.848-9.8555-16.859-5.4805-4.0078-12.379-5.5625-19.051-4.2852-6.668 1.2734-12.512 5.2617-16.129 11.008-0.73828-0.82422-1.4062-1.7148-1.9883-2.6562-8.3242-14.414 3.4766-41.273 32.512-70.578z"/>
</g>
</svg>
