<?xml version="1.0" encoding="iso-8859-1"?>
<!-- Generator: Adobe Illustrator 19.0.0, SVG Export Plug-In . SVG Version: 6.00 Build 0)  -->
<svg version="1.1" id="Layer_1" xmlns="http://www.w3.org/2000/svg" xmlns:xlink="http://www.w3.org/1999/xlink" x="0px" y="0px"
	 viewBox="0 0 512 512" style="enable-background:new 0 0 512 512;" xml:space="preserve">
<g>
	<g>
		<g>
			<path d="M482.431,330.88c-6.827-24.32-25.6-52.053-53.12-79.787c43.627-50.347,61.76-98.24,42.88-128.107
				c-7.787-12.267-20.693-20.48-38.293-24.427c-22.933-5.12-53.013-2.56-86.933,6.507C326.804,41.067,293.844,0,255.978,0
				c-37.76,0-70.507,40.64-90.667,104.107c-64.533-14.72-114.987-8.32-132.267,21.867c-7.04,12.373-8.32,27.307-3.52,44.373
				c7.573,27.307,30.293,58.667,63.36,89.813c-50.987,54.4-73.387,107.413-53.12,139.52c7.787,12.267,20.587,20.48,38.293,24.427
				c8.533,1.813,17.28,2.667,26.027,2.56c18.88,0,40.64-3.52,64.213-10.027c20.373,58.453,51.84,95.36,87.787,95.36
				c39.68,0,73.92-44.907,93.76-114.133c20.693,4.48,40,7.04,57.067,7.04c34.88,0,60.693-9.6,72.213-29.547
				C486.058,362.88,487.231,347.947,482.431,330.88z M341.951,181.547c-11.093-7.147-22.613-14.08-34.667-20.8
				c-6.933-3.84-13.76-7.467-20.693-10.987c14.933-6.827,30.293-12.907,45.867-18.133
				C336.511,148.053,339.711,164.693,341.951,181.547z M255.978,21.333c26.027,0,53.013,33.387,70.72,89.813
				c-22.187,7.36-43.733,16.32-64.64,26.667c-24.64-11.413-50.133-20.907-76.16-28.48C203.498,54.08,230.271,21.333,255.978,21.333z
				 M179.924,129.813c19.627,5.653,38.933,12.48,57.707,20.587c-12.587,6.933-25.173,14.293-37.76,22.4
				c-10.88,7.04-21.227,14.187-31.253,21.44C170.858,172.48,174.591,151.04,179.924,129.813z M50.004,164.693
				c-3.2-11.413-2.667-20.8,1.493-28.053c11.307-19.733,52.053-24.64,107.84-12.053c-7.147,28.587-11.733,57.813-13.76,87.253
				c-13.653,10.987-26.347,22.08-37.867,33.173C77.418,216.64,56.618,188.373,50.004,164.693z M144.298,275.2
				c-7.147-5.44-14.08-10.987-20.587-16.533c6.4-6.187,13.227-12.373,20.48-18.56c-0.107,5.12-0.213,10.133-0.213,15.36
				C143.978,262.187,144.084,268.693,144.298,275.2z M82.538,403.2c-11.84-2.667-20.267-7.68-24.853-14.933
				c-13.44-21.333,5.333-65.387,50.88-113.813c11.413,9.813,23.893,19.52,37.12,28.907c2.667,33.92,8.213,65.387,16,93.013
				C130.324,405.013,102.804,407.787,82.538,403.2z M168.724,318.933c11.52,7.467,23.467,14.72,35.947,21.653
				c14.4,8,28.587,15.04,42.773,21.653c-21.12,10.88-42.987,20.16-65.493,27.84C175.658,366.72,171.178,342.933,168.724,318.933z
				 M255.978,490.667c-24.533,0-49.92-29.547-67.627-80.107c26.773-8.96,55.253-21.653,84.16-37.333
				c18.453,7.68,37.44,14.187,56.747,19.52C311.658,454.187,283.178,490.667,255.978,490.667z M334.484,372.16
				c-12.267-3.413-25.067-7.573-38.4-12.48c5.333-3.2,10.56-6.4,15.893-9.813c10.453-6.72,20.373-13.653,30.08-20.587
				C340.138,344.427,337.578,358.827,334.484,372.16z M344.938,300.48c-13.76,10.773-28.48,21.227-44.48,31.36
				c-9.813,6.293-19.627,12.16-29.333,17.707c-19.2-8.213-37.867-17.493-56.107-27.627c-17.067-9.493-33.28-19.733-48.533-30.187
				c-0.64-11.627-1.173-23.36-1.173-35.733c0-11.52,0.427-22.613,1.067-33.493c13.867-10.773,28.8-21.44,45.013-31.787
				c16.853-10.773,33.92-20.587,50.773-29.227c11.413,5.44,22.933,11.307,34.667,17.813c16.853,9.387,32.853,19.307,47.893,29.653
				c1.173,15.04,1.92,30.613,1.92,46.933C346.644,271.36,346.004,286.187,344.938,300.48z M407.658,117.333
				c7.253-0.107,14.507,0.64,21.653,2.133c11.947,2.667,20.267,7.68,24.96,15.04c12.373,19.52-2.56,58.24-40.213,101.867
				c-15.467-13.973-31.787-26.987-48.853-39.04c-2.347-24.213-6.4-48.107-12.267-71.68
				C373.098,120.213,391.658,117.333,407.658,117.333z M367.124,225.067c11.627,8.853,22.507,17.813,32.427,26.773
				c-9.6,9.92-20.373,20.053-32.107,30.187c0.32-8.64,0.533-17.387,0.533-26.24C367.978,245.333,367.658,235.093,367.124,225.067z
				 M460.458,364.693c-11.2,19.413-50.88,24.533-105.387,12.587c4.907-21.653,8.427-43.627,10.347-65.707
				c17.493-13.867,34.027-28.8,49.6-44.8c24.427,24.747,41.173,49.067,46.933,69.76C465.044,347.947,464.618,357.44,460.458,364.693
				z"/>
		</g>
	</g>
</g>
<g>
</g>
<g>
</g>
<g>
</g>
<g>
</g>
<g>
</g>
<g>
</g>
<g>
</g>
<g>
</g>
<g>
</g>
<g>
</g>
<g>
</g>
<g>
</g>
<g>
</g>
<g>
</g>
<g>
</g>
</svg>
