<?xml version="1.0" encoding="iso-8859-1"?>
<!-- Generator: Adobe Illustrator 18.0.0, SVG Export Plug-In . SVG Version: 6.00 Build 0)  -->
<!DOCTYPE svg PUBLIC "-//W3C//DTD SVG 1.1//EN" "http://www.w3.org/Graphics/SVG/1.1/DTD/svg11.dtd">
<svg version="1.1" id="Capa_1" xmlns="http://www.w3.org/2000/svg" xmlns:xlink="http://www.w3.org/1999/xlink" x="0px" y="0px"
	 viewBox="0 0 452.833 452.833" style="enable-background:new 0 0 452.833 452.833;" xml:space="preserve">
<path d="M408.148,104.161c-24.64,0-44.685,20.045-44.685,44.685c0,1.837,0.125,3.644,0.341,5.423l-44.829,14.179
	c-16.31-30.164-48.233-50.701-84.863-50.701c-3.727,0-7.403,0.22-11.021,0.634l-2.892-17.729
	c17.016-6.318,29.175-22.717,29.175-41.905c0-24.64-20.045-44.685-44.685-44.685s-44.685,20.045-44.685,44.685
	c0,23.177,17.737,42.283,40.349,44.471l3.181,19.503c-24.853,8.333-45.219,26.533-56.424,49.925l-36.444-11.054
	c0.032-0.767,0.059-1.535,0.059-2.31c0-30.527-24.835-55.363-55.363-55.363C24.835,103.919,0,128.755,0,159.282
	c0,30.527,24.835,55.362,55.362,55.362c22.767,0,42.361-13.817,50.855-33.502l34.182,10.368c-1.755,7.265-2.692,14.846-2.692,22.642
	c0,24.376,9.098,46.664,24.072,63.657l-43.604,56.43c-7.612-3.947-16.242-6.192-25.392-6.192c-30.527,0-55.363,24.835-55.363,55.363
	c0,30.527,24.835,55.362,55.363,55.362c30.527,0,55.362-24.835,55.362-55.362c0-14.177-5.362-27.122-14.157-36.926l42.544-55.058
	c16.078,12.011,36.013,19.131,57.581,19.131c22.173,0,42.619-7.529,58.924-20.159l14.32,14.817
	c-6.896,9.232-10.984,20.679-10.984,33.063c0,30.527,24.835,55.362,55.362,55.362c30.527,0,55.363-24.835,55.363-55.362
	c0-30.527-24.835-55.363-55.363-55.363c-10.932,0-21.126,3.198-29.719,8.689l-14.512-15.017
	c14.342-16.833,23.013-38.64,23.013-62.436c0-9.422-1.365-18.531-3.897-27.145l44.018-13.922
	c7.97,12.292,21.801,20.446,37.51,20.446c24.64,0,44.685-20.045,44.685-44.685S432.788,104.161,408.148,104.161z M180.004,58.746
	c0-13.611,11.074-24.685,24.685-24.685s24.685,11.074,24.685,24.685c0,9.186-5.047,17.209-12.51,21.46l-0.964-5.913
	c-0.889-5.451-6.025-9.149-11.479-8.26c-5.451,0.889-9.149,6.029-8.26,11.479l0.76,4.658
	C187.105,78.908,180.004,69.644,180.004,58.746z M55.362,194.644C35.863,194.644,20,178.781,20,159.282s15.863-35.363,35.362-35.363
	c18.214,0,33.252,13.843,35.155,31.561l-9.032-2.74c-5.284-1.602-10.869,1.382-12.472,6.667c-1.603,5.285,1.381,10.869,6.667,12.472
	l11.205,3.399C81.035,186.758,69.106,194.644,55.362,194.644z M92.782,418.772c-19.499,0-35.363-15.863-35.363-35.362
	s15.864-35.363,35.363-35.363s35.362,15.864,35.362,35.363S112.281,418.772,92.782,418.772z M387.098,338.278
	c0,19.499-15.864,35.362-35.363,35.362s-35.362-15.863-35.362-35.362s15.863-35.363,35.362-35.363S387.098,318.779,387.098,338.278z
	 M293.523,262.121l-15.498-16.036c-3.839-3.972-10.17-4.079-14.14-0.242c-3.972,3.838-4.08,10.169-0.242,14.14l15.387,15.921
	c-12.618,9.203-28.14,14.652-44.917,14.652c-16.968,0-32.656-5.566-45.349-14.959l14.38-18.609c3.377-4.37,2.572-10.65-1.798-14.027
	c-4.37-3.375-10.65-2.571-14.027,1.799l-13.019,16.848c-10.372-13.045-16.591-29.534-16.591-47.456
	c0-42.13,34.275-76.405,76.405-76.405s76.405,34.275,76.405,76.405C310.517,232.309,304.14,248.997,293.523,262.121z
	 M408.148,173.531c-13.611,0-24.685-11.074-24.685-24.685s11.074-24.685,24.685-24.685s24.685,11.074,24.685,24.685
	S421.76,173.531,408.148,173.531z"/>
<g>
</g>
<g>
</g>
<g>
</g>
<g>
</g>
<g>
</g>
<g>
</g>
<g>
</g>
<g>
</g>
<g>
</g>
<g>
</g>
<g>
</g>
<g>
</g>
<g>
</g>
<g>
</g>
<g>
</g>
</svg>
