<?xml version="1.0" encoding="utf-8"?>
<svg version="1.1"   xmlns="http://www.w3.org/2000/svg" xmlns:xlink="http://www.w3.org/1999/xlink" x="0px" y="0px"
	 viewBox=".9 .9 18.1 10.1" fill='#999999' style="enable-background:new 0 0 118 118;" xml:space="preserve">

	<rect x="1" y="1" width=".90" height=".90" />
	<rect x="18" y="1" width=".90" height=".90" />

	<rect x="1" y="2" width=".90" height=".90" />
	<rect x="2" y="2" width=".90" height=".90" />
	<rect x="13" y="2" width=".90" height=".90" />
	<rect x="14" y="2" width=".90" height=".90" />
	<rect x="15" y="2" width=".90" height=".90" />
	<rect x="16" y="2" width=".90" height=".90" />
	<rect x="17" y="2" width=".90" height=".90" />
	<rect x="18" y="2" width=".90" height=".90" />

	<rect x="1" y="3" width=".90" height=".90" />
	<rect x="2" y="3" width=".90" height=".90" />
	<rect x="13" y="3" width=".90" height=".90" />
	<rect x="14" y="3" width=".90" height=".90" />
	<rect x="15" y="3" width=".90" height=".90" />
	<rect x="16" y="3" width=".90" height=".90" />
	<rect x="17" y="3" width=".90" height=".90" />
	<rect x="18" y="3" width=".90" height=".90" />
	
	<rect x="1" y="4" width=".90" height=".90" />
	<rect x="2" y="4" width=".90" height=".90" />
	<rect x="3" y="4" width=".90" height=".90" />
	<rect x="4" y="4" width=".90" height=".90" />
	<rect x="5" y="4" width=".90" height=".90" />
	<rect x="6" y="4" width=".90" height=".90" />
	<rect x="7" y="4" width=".90" height=".90" />
	<rect x="8" y="4" width=".90" height=".90" />
	<rect x="9" y="4" width=".90" height=".90" />
	<rect x="10" y="4" width=".90" height=".90" />
	<rect x="11" y="4" width=".90" height=".90" />
	<rect x="12" y="4" width=".90" height=".90" />
	<rect x="13" y="4" width=".90" height=".90" />
	<rect x="14" y="4" width=".90" height=".90" />
	<rect x="15" y="4" width=".90" height=".90" />
	<rect x="16" y="4" width=".90" height=".90" />
	<rect x="17" y="4" width=".90" height=".90" />
	<rect x="18" y="4" width=".90" height=".90" />

	<rect x="1" y="5" width=".90" height=".90" />
	<rect x="2" y="5" width=".90" height=".90" />
	<rect x="3" y="5" width=".90" height=".90" />
	<rect x="4" y="5" width=".90" height=".90" />
	<rect x="5" y="5" width=".90" height=".90" />
	<rect x="6" y="5" width=".90" height=".90" />
	<rect x="7" y="5" width=".90" height=".90" />
	<rect x="8" y="5" width=".90" height=".90" />
	<rect x="9" y="5" width=".90" height=".90" />
	<rect x="10" y="5" width=".90" height=".90" />
	<rect x="11" y="5" width=".90" height=".90" />
	<rect x="12" y="5" width=".90" height=".90" />
	<rect x="13" y="5" width=".90" height=".90" />
	<rect x="14" y="5" width=".90" height=".90" />
	<rect x="15" y="5" width=".90" height=".90" />
	<rect x="16" y="5" width=".90" height=".90" />
	<rect x="17" y="5" width=".90" height=".90" />
	<rect x="18" y="5" width=".90" height=".90" />

	<rect x="1" y="6" width=".90" height=".90" />
	<rect x="2" y="6" width=".90" height=".90" />
	<rect x="3" y="6" width=".90" height=".90" />
	<rect x="4" y="6" width=".90" height=".90" />
	<rect x="5" y="6" width=".90" height=".90" />
	<rect x="6" y="6" width=".90" height=".90" />
	<rect x="7" y="6" width=".90" height=".90" />
	<rect x="8" y="6" width=".90" height=".90" />
	<rect x="9" y="6" width=".90" height=".90" />
	<rect x="10" y="6" width=".90" height=".90" />
	<rect x="11" y="6" width=".90" height=".90" />
	<rect x="12" y="6" width=".90" height=".90" />
	<rect x="13" y="6" width=".90" height=".90" />
	<rect x="14" y="6" width=".90" height=".90" />
	<rect x="15" y="6" width=".90" height=".90" />
	<rect x="16" y="6" width=".90" height=".90" />
	<rect x="17" y="6" width=".90" height=".90" />
	<rect x="18" y="6" width=".90" height=".90" />

	<rect x="1" y="7" width=".90" height=".90" />
	<rect x="2" y="7" width=".90" height=".90" />
	<rect x="3" y="7" width=".90" height=".90" />
	<rect x="4" y="7" width=".90" height=".90" />
	<rect x="5" y="7" width=".90" height=".90" />
	<rect x="6" y="7" width=".90" height=".90" />
	<rect x="7" y="7" width=".90" height=".90" />
	<rect x="8" y="7" width=".90" height=".90" />
	<rect x="9" y="7" width=".90" height=".90" />
	<rect x="10" y="7" width=".90" height=".90" />
	<rect x="11" y="7" width=".90" height=".90" />
	<rect x="12" y="7" width=".90" height=".90" />
	<rect x="13" y="7" width=".90" height=".90" />
	<rect x="14" y="7" width=".90" height=".90" />
	<rect x="15" y="7" width=".90" height=".90" />
	<rect x="16" y="7" width=".90" height=".90" />
	<rect x="17" y="7" width=".90" height=".90" />
	<rect x="18" y="7" width=".90" height=".90" />

	<rect x="4" y="9" width=".90" height=".90" />
	<rect x="5" y="9" width=".90" height=".90" />
	<rect x="6" y="9" width=".90" height=".90" />
	<rect x="7" y="9" width=".90" height=".90" />
	<rect x="8" y="9" width=".90" height=".90" />
	<rect x="9" y="9" width=".90" height=".90" />
	<rect x="10" y="9" width=".90" height=".90" />
	<rect x="11" y="9" width=".90" height=".90" />
	<rect x="12" y="9" width=".90" height=".90" />
	<rect x="13" y="9" width=".90" height=".90" />
	<rect x="14" y="9" width=".90" height=".90" />
	<rect x="15" y="9" width=".90" height=".90" />
	<rect x="16" y="9" width=".90" height=".90" />
	<rect x="17" y="9" width=".90" height=".90" />
	<rect x="18" y="9" width=".90" height=".90" />

	<rect x="4" y="10" width=".90" height=".90" />
	<rect x="5" y="10" width=".90" height=".90" />
	<rect x="6" y="10" width=".90" height=".90" />
	<rect x="7" y="10" width=".90" height=".90" />
	<rect x="8" y="10" width=".90" height=".90" />
	<rect x="9" y="10" width=".90" height=".90" />
	<rect x="10" y="10" width=".90" height=".90" />
	<rect x="11" y="10" width=".90" height=".90" />
	<rect x="12" y="10" width=".90" height=".90" />
	<rect x="13" y="10" width=".90" height=".90" />
	<rect x="14" y="10" width=".90" height=".90" />
	<rect x="15" y="10" width=".90" height=".90" />
	<rect x="16" y="10" width=".90" height=".90" />
	<rect x="17" y="10" width=".90" height=".90" />
	<rect x="18" y="10" width=".90" height=".90" />

</svg>
