<?xml version="1.0" encoding="iso-8859-1"?>
<!-- Generator: Adobe Illustrator 19.0.0, SVG Export Plug-In . SVG Version: 6.00 Build 0)  -->
<svg version="1.1" id="Layer_1" xmlns="http://www.w3.org/2000/svg" xmlns:xlink="http://www.w3.org/1999/xlink" x="0px" y="0px"
	 viewBox="0 0 309.076 309.076" style="enable-background:new 0 0 309.076 309.076;" xml:space="preserve">
<g>
	<circle style="fill:#FFDB77;" cx="140.487" cy="174.998" r="47.495"/>
	<circle style="fill:#13829B;" cx="260.975" cy="52.999" r="33.584"/>
	<circle style="fill:#28D2E4;" cx="267.992" cy="256.077" r="33.584"/>
	<g>
		<circle style="fill:#28D2E4;" cx="31.248" cy="64.998" r="23.747"/>
		<path style="fill:#22313F;" d="M237.955,228.089l-47.485-30.195c8.462-18.398,6.146-40.077-6.387-56.364l53.857-54.532
			c27.144,18.451,64.121-1.094,64.121-33.999c0-22.654-18.431-41.084-41.084-41.084c-33.094,0-52.652,37.389-33.703,64.537
			l-53.854,54.529c-19.558-14.67-46.437-14.65-65.982,0.094l-49.5-49.844c12.653-20.725-2.357-47.48-26.689-47.48
			C14.018,33.751,0,47.769,0,64.998c0,24.281,26.611,39.23,47.293,26.801l49.505,49.85c-27.499,35.938-1.852,88.344,43.689,88.344
			c16.781,0,31.822-7.564,41.917-19.452l47.486,30.196c-10.905,26.987,9.121,56.424,38.102,56.424
			c22.653,0,41.084-18.43,41.084-41.084C309.076,218.856,263.302,200.904,237.955,228.089z M260.976,26.915
			c14.383,0,26.084,11.701,26.084,26.084s-11.701,26.084-26.084,26.084s-26.084-11.701-26.084-26.084S246.593,26.915,260.976,26.915
			z M15,64.998c0-8.959,7.289-16.247,16.248-16.247s16.247,7.289,16.247,16.247c0,8.959-7.288,16.247-16.247,16.247
			C22.289,81.246,15,73.957,15,64.998z M140.487,214.993c-22.054,0-39.995-17.941-39.995-39.995
			c0-22.053,17.941-39.995,39.995-39.995c22.053,0,39.994,17.942,39.994,39.995C180.482,197.052,162.54,214.993,140.487,214.993z
			 M267.992,282.161c-14.383,0-26.084-11.701-26.084-26.084c0-14.383,11.701-26.084,26.084-26.084s26.084,11.701,26.084,26.084
			C294.076,270.46,282.375,282.161,267.992,282.161z"/>
	</g>
</g>
<g>
</g>
<g>
</g>
<g>
</g>
<g>
</g>
<g>
</g>
<g>
</g>
<g>
</g>
<g>
</g>
<g>
</g>
<g>
</g>
<g>
</g>
<g>
</g>
<g>
</g>
<g>
</g>
<g>
</g>
</svg>
