<?xml version="1.0" encoding="iso-8859-1"?>
<!-- Generator: Adobe Illustrator 19.0.0, SVG Export Plug-In . SVG Version: 6.00 Build 0)  -->
<svg version="1.1" id="Layer_1" xmlns="http://www.w3.org/2000/svg" xmlns:xlink="http://www.w3.org/1999/xlink" x="0px" y="0px"
	 viewBox="0 0 469.763 469.763" style="enable-background:new 0 0 469.763 469.763;" xml:space="preserve">
<g>
	<g>
		<path style="fill:#31C0D8;" d="M340.786,7.5c29.279,0,52.952,23.673,52.952,52.952s-23.673,52.952-52.952,52.952
			s-52.952-23.673-52.952-52.952S311.507,7.5,340.786,7.5z"/>
		<path style="fill:#FFD248;" d="M347.016,356.359c29.279,0,52.952,23.673,52.952,52.952s-23.673,52.952-52.952,52.952
			s-52.952-23.673-52.952-52.952S317.737,356.359,347.016,356.359z"/>
		<path style="fill:#AFB6BB;" d="M169.471,132.093c55.07,0,99.674,44.604,99.674,99.674s-44.604,99.674-99.674,99.674
			s-99.674-44.604-99.674-99.674S114.402,132.093,169.471,132.093z"/>
	</g>
	<g>
		<path d="M347.016,348.859c-13.969,0-26.836,4.775-37.084,12.762l-59.595-59.596c16.379-18.827,26.308-43.404,26.308-70.259
			c0-26.854-9.93-51.432-26.309-70.259l53.366-53.366c10.248,7.987,23.114,12.762,37.083,12.762
			c33.333,0,60.452-27.119,60.452-60.452C401.238,27.119,374.12,0,340.786,0c-33.333,0-60.452,27.119-60.452,60.452
			c0,13.969,4.775,26.836,12.762,37.083l-53.366,53.366c-18.826-16.379-43.404-26.309-70.259-26.309
			c-59.096,0-107.174,48.078-107.174,107.174S110.375,338.94,169.471,338.94c26.855,0,51.432-9.93,70.259-26.309l59.595,59.596
			c-7.987,10.248-12.762,23.115-12.762,37.084c0,33.333,27.119,60.452,60.452,60.452s60.452-27.119,60.452-60.452
			C407.468,375.978,380.349,348.859,347.016,348.859z M340.786,15c25.063,0,45.452,20.39,45.452,45.452s-20.39,45.452-45.452,45.452
			c-25.062,0-45.452-20.39-45.452-45.452S315.724,15,340.786,15z M77.297,231.767c0-50.825,41.349-92.174,92.174-92.174
			s92.174,41.349,92.174,92.174s-41.349,92.174-92.174,92.174C118.647,323.941,77.297,282.592,77.297,231.767z M347.016,454.763
			c-25.063,0-45.452-20.39-45.452-45.452c0-25.063,20.39-45.452,45.452-45.452s45.452,20.39,45.452,45.452
			C392.468,434.374,372.078,454.763,347.016,454.763z"/>
		<path d="M105.905,237.997h15c0-30.215,24.582-54.796,54.796-54.796v-15C137.215,168.2,105.905,199.511,105.905,237.997z"/>
		<rect x="325.212" y="49.837" width="31.148" height="15"/>
		<rect x="331.442" y="398.696" width="31.148" height="15"/>
	</g>
</g>
<g>
</g>
<g>
</g>
<g>
</g>
<g>
</g>
<g>
</g>
<g>
</g>
<g>
</g>
<g>
</g>
<g>
</g>
<g>
</g>
<g>
</g>
<g>
</g>
<g>
</g>
<g>
</g>
<g>
</g>
</svg>
